<?xml version="1.0" encoding="utf-8"?>
<!-- Generator: Adobe Illustrator 25.4.1, SVG Export Plug-In . SVG Version: 6.00 Build 0)  -->
<svg version="1.1" id="Layer_1" xmlns="http://www.w3.org/2000/svg" xmlns:xlink="http://www.w3.org/1999/xlink" x="0px" y="0px"
	 viewBox="0 0 841.9 368.7" style="enable-background:new 0 0 841.9 368.7;" xml:space="preserve">
<style type="text/css">
	.st0{fill:url(#SVGID_1_);}
	.st1{fill:#26247B;}
	.st2{fill:url(#SVGID_00000039848010848557013780000009757895021051529885_);}
	.st3{fill:url(#SVGID_00000072278606232223988500000002384992629541455493_);}
	.st4{fill:url(#SVGID_00000093856778291330647110000012147328752811370397_);}
	.st5{fill:url(#SVGID_00000145756110153294774730000011740690858160923818_);}
	.st6{fill:url(#SVGID_00000020381396843863856400000011943113100137052299_);}
	.st7{opacity:0.8;fill:url(#SVGID_00000043453395150307619370000018017441817006477192_);enable-background:new    ;}
	.st8{opacity:0.8;fill:url(#SVGID_00000121245764067986520700000000186110027798969731_);enable-background:new    ;}
	.st9{opacity:0.8;fill:url(#SVGID_00000071523888451298689110000011977298890939064480_);enable-background:new    ;}
	.st10{fill:url(#SVGID_00000061468181337958521110000007366631517689756297_);}
</style>
<g>
	
		<radialGradient id="SVGID_1_" cx="75.5833" cy="134.7538" r="302.1826" gradientTransform="matrix(1 0 0 -0.5374 0 126.0839)" gradientUnits="userSpaceOnUse">
		<stop  offset="0.187" style="stop-color:#0083CA"/>
		<stop  offset="0.2604" style="stop-color:#0081C8"/>
		<stop  offset="0.3506" style="stop-color:#007AC2"/>
		<stop  offset="0.4248" style="stop-color:#0072BC"/>
		<stop  offset="0.4866" style="stop-color:#006FBA"/>
		<stop  offset="0.5661" style="stop-color:#0068B4"/>
		<stop  offset="0.6548" style="stop-color:#005CAB"/>
		<stop  offset="0.6988" style="stop-color:#0054A6"/>
		<stop  offset="0.9993" style="stop-color:#26247B"/>
	</radialGradient>
	<path class="st0" d="M155.9,225.4c0,34.5-37.9,50.8-63.9,53.6c-27.1,1.7-55.4-2.4-81.8-17c-2.7-1.5-3.7-4.9-2.2-7.7l14.7-27.1
		c1.5-2.7,4.8-3.8,7.6-2.4c9.4,4.9,30.4,13.8,51.9,14.2c17.7-0.3,28.1-7.5,28-15.6l0,0c0-12.8-15.1-18.2-46.3-28.7
		c-31.1-10.5-51-31.3-51.1-50.2C14.5,94,76.3,77.4,123,97.8c3.1,1.3,4.4,5,2.8,8l-11.9,21.9c-1.4,2.6-4.5,3.6-7.2,2.5
		c-8.1-3.4-16-4.1-22.6-4.1c-22.4-0.4-27.6,17.4-22.3,25.2c3.9,5.3,12.1,11.2,40.2,18.9l0,0C121.9,176,155.9,187.1,155.9,225.4z"/>
	<path class="st1" d="M528.6,276.4h24.5c4.3,0,7.9-3.6,7.9-7.9v-14.6l-40.4-17.5v32.2C520.7,272.8,524.3,276.4,528.6,276.4z"/>
	
		<linearGradient id="SVGID_00000066509273340295653400000005549339012023280543_" gradientUnits="userSpaceOnUse" x1="592.65" y1="99.7283" x2="592.65" y2="266.5977" gradientTransform="matrix(1 0 0 -1 0 370)">
		<stop  offset="0" style="stop-color:#820000"/>
		<stop  offset="0.2243" style="stop-color:#C4161C"/>
		<stop  offset="0.4692" style="stop-color:#ED1C24"/>
		<stop  offset="0.5217" style="stop-color:#EE3424"/>
		<stop  offset="0.6345" style="stop-color:#F05123"/>
		<stop  offset="0.7013" style="stop-color:#F15A22"/>
		<stop  offset="0.8498" style="stop-color:#F6851F"/>
		<stop  offset="0.9975" style="stop-color:#FCAF17"/>
	</linearGradient>
	<path style="fill:url(#SVGID_00000066509273340295653400000005549339012023280543_);" d="M601.3,218.8L601.3,218.8
		c35,0,63.4-28.4,63.4-63.4l0,0c0-35-28.4-63.4-63.4-63.4l0,0h-72.8c-4.4,0-7.9,3.5-7.9,7.9v136.4l40.4,17.6v-31.4
		c0-2,1.6-3.6,3.6-3.6L601.3,218.8z M601.3,178.5h-36.7c-2,0-3.6-1.6-3.6-3.6V136c0-2,1.6-3.6,3.6-3.6h36.7l0,0
		c12.7,0,23,10.3,23,23l0,0C624.4,168.2,614.1,178.5,601.3,178.5L601.3,178.5z"/>
	
		<radialGradient id="SVGID_00000042724204563149217300000012777195112952867256_" cx="236.6203" cy="134.7538" r="305.6758" gradientTransform="matrix(1 0 0 -0.5374 0 126.0839)" gradientUnits="userSpaceOnUse">
		<stop  offset="0.187" style="stop-color:#0083CA"/>
		<stop  offset="0.2604" style="stop-color:#0081C8"/>
		<stop  offset="0.3506" style="stop-color:#007AC2"/>
		<stop  offset="0.4248" style="stop-color:#0072BC"/>
		<stop  offset="0.4866" style="stop-color:#006FBA"/>
		<stop  offset="0.5661" style="stop-color:#0068B4"/>
		<stop  offset="0.6548" style="stop-color:#005CAB"/>
		<stop  offset="0.6988" style="stop-color:#0054A6"/>
		<stop  offset="0.9993" style="stop-color:#26247B"/>
	</radialGradient>
	<path style="fill:url(#SVGID_00000042724204563149217300000012777195112952867256_);" d="M323.8,249.2c-4.4-5.3-15.1-17.6-19.6-23
		c-1.9-2.2-5.2-2.6-7.6-1c-6.6,4.5-14.3,8.7-22.7,11.1l0.1-0.1c-15.5,5.1-30.6,3.1-43.1-3.6l0,0C180,204.8,200,128.1,259,129.5l0,0
		c8.7,0,17.3,1.9,24.8,4.5c2.8,0.9,5.8-0.3,7-3l12.4-27c0.1-0.2,0.1-0.3,0.2-0.5c1-2.9-0.5-6.2-3.4-7.2c-11.4-3.9-25.4-7.1-41-7.1
		l0,0c-59.7-1.6-106.2,52.1-96.2,111c5.5,31.4,24.7,55,49.2,67.9c16,8.5,34.5,12.6,53.5,10.8c7-0.6,14-2.1,20.9-4.4
		c14.4-4.3,26.5-10.9,36.1-17.6C325,255.2,325.6,251.7,323.8,249.2z"/>
	
		<radialGradient id="SVGID_00000073697528980678093790000006376705638087515024_" cx="402.0825" cy="134.7538" r="309.9653" gradientTransform="matrix(1 0 0 -0.5374 0 126.0839)" gradientUnits="userSpaceOnUse">
		<stop  offset="0.187" style="stop-color:#0083CA"/>
		<stop  offset="0.2604" style="stop-color:#0081C8"/>
		<stop  offset="0.3506" style="stop-color:#007AC2"/>
		<stop  offset="0.4248" style="stop-color:#0072BC"/>
		<stop  offset="0.4866" style="stop-color:#006FBA"/>
		<stop  offset="0.5661" style="stop-color:#0068B4"/>
		<stop  offset="0.6548" style="stop-color:#005CAB"/>
		<stop  offset="0.6988" style="stop-color:#0054A6"/>
		<stop  offset="0.9993" style="stop-color:#26247B"/>
	</radialGradient>
	<path style="fill:url(#SVGID_00000073697528980678093790000006376705638087515024_);" d="M462.2,211l-0.3,0.5
		c-14,24.5-44.5,34.5-70.3,22.7c-54.5-26.5-34.9-106.2,25.2-104.7l0,0c8.7,0,17.3,1.9,24.8,4.5c2.8,0.9,5.8-0.3,7-3l12.4-27
		c0.1-0.2,0.1-0.3,0.2-0.5c1-2.9-0.5-6.2-3.4-7.2c-11.4-3.9-25.4-7.1-41-7.1l0,0c-59.8-1.6-106.2,52.1-96.2,111
		c13,74.1,101.9,104.7,157.7,54.3c8.5-7.7,15.6-17.2,20.9-27.5L462.2,211z"/>
	
		<linearGradient id="SVGID_00000183964924459411120420000016734132536494326971_" gradientUnits="userSpaceOnUse" x1="465.6779" y1="99.3568" x2="465.6779" y2="267.663" gradientTransform="matrix(1 0 0 -1 0 370)">
		<stop  offset="0" style="stop-color:#C12428"/>
		<stop  offset="0.4783" style="stop-color:#E8242A"/>
		<stop  offset="0.5201" style="stop-color:#EA3529"/>
		<stop  offset="0.6341" style="stop-color:#EE5227"/>
		<stop  offset="0.7016" style="stop-color:#F05B26"/>
		<stop  offset="0.8566" style="stop-color:#F38523"/>
		<stop  offset="1" style="stop-color:#F6AB1B"/>
	</linearGradient>
	<path style="fill:url(#SVGID_00000183964924459411120420000016734132536494326971_);" d="M435.6,159.6c1.3-2.8,4.7-4.1,7.5-2.9
		l62.7,27.3c2.2,0.9,3.6,3.1,3.4,5.4c-0.7,13.6-4.2,26.2-10,37.7l-73.6-31.9c-3-1.3-4.3-4.8-2.9-7.7L435.6,159.6z"/>
	<g>
		
			<radialGradient id="SVGID_00000142879779036133740530000016202414652600332181_" cx="402.0981" cy="134.7431" r="309.9374" gradientTransform="matrix(1 0 0 -0.5374 0 126.0888)" gradientUnits="userSpaceOnUse">
			<stop  offset="0.187" style="stop-color:#0083CA"/>
			<stop  offset="0.2604" style="stop-color:#0081C8"/>
			<stop  offset="0.3506" style="stop-color:#007AC2"/>
			<stop  offset="0.4248" style="stop-color:#0072BC"/>
			<stop  offset="0.4866" style="stop-color:#006FBA"/>
			<stop  offset="0.5661" style="stop-color:#0068B4"/>
			<stop  offset="0.6548" style="stop-color:#005CAB"/>
			<stop  offset="0.6988" style="stop-color:#0054A6"/>
			<stop  offset="0.9993" style="stop-color:#26247B"/>
		</radialGradient>
		<path style="fill:url(#SVGID_00000142879779036133740530000016202414652600332181_);" d="M499.2,227.1L462.1,211l0,0
			C474.9,216.5,487.3,221.9,499.2,227.1L499.2,227.1z"/>
		
			<linearGradient id="SVGID_00000086675246872931806430000017209774082241033401_" gradientUnits="userSpaceOnUse" x1="97.2728" y1="259.8682" x2="76.833" y2="142.3393" gradientTransform="matrix(1 0 0 -1 0 370)">
			<stop  offset="0" style="stop-color:#FFFFFF;stop-opacity:0.8"/>
			<stop  offset="0.6265" style="stop-color:#FFFFFF;stop-opacity:0"/>
		</linearGradient>
		<path style="opacity:0.8;fill:url(#SVGID_00000086675246872931806430000017209774082241033401_);enable-background:new    ;" d="
			M63.8,194.7c31.2,10.5,46.3,15.9,46.3,28.7l0,0c0,8.1-10.3,15.3-28,15.6c-21.5-0.4-42.6-9.3-51.9-14.2c-2.7-1.4-6.1-0.4-7.6,2.4
			L7.9,254.3c-1.5,2.7-0.5,6.1,2.2,7.7c26.5,14.7,54.7,18.7,81.8,17c26-2.9,63.9-19.1,63.9-53.6c0-38.3-34-49.4-54-55.4l0,0
			c-28.1-7.7-36.3-13.5-40.2-18.9c-5.3-7.7-0.2-25.6,22.3-25.2c6.6,0,14.5,0.7,22.6,4.1c2.7,1.1,5.8,0.1,7.2-2.5l9.7-17.9
			c-39,2-76.2,11.7-110.1,27.6c-0.4,2.3-0.6,4.7-0.7,7.2C12.8,163.4,32.6,184.2,63.8,194.7z"/>
		
			<linearGradient id="SVGID_00000121267018332585181640000014696964071912603579_" gradientUnits="userSpaceOnUse" x1="256.5144" y1="232.1741" x2="236.0746" y2="114.6451" gradientTransform="matrix(1 0 0 -1 0 370)">
			<stop  offset="0" style="stop-color:#FFFFFF;stop-opacity:0.8"/>
			<stop  offset="0.6265" style="stop-color:#FFFFFF;stop-opacity:0"/>
		</linearGradient>
		<path style="opacity:0.8;fill:url(#SVGID_00000121267018332585181640000014696964071912603579_);enable-background:new    ;" d="
			M162.8,200.3c5.5,31.4,24.7,55,49.2,67.9c16,8.5,34.5,12.6,53.5,10.8c7-0.6,14-2.1,20.9-4.4c14.4-4.3,26.5-10.9,36.1-17.6
			c2.6-1.8,3.1-5.3,1.3-7.8c-4.4-5.3-15.1-17.6-19.6-23c-1.9-2.2-5.2-2.6-7.6-1c-6.6,4.5-14.3,8.7-22.7,11.1l0.1-0.1
			c-15.5,5.1-30.6,3.1-43.1-3.6l0,0C180,204.8,200,128.1,259,129.5c7.9,0,15.6,1.5,22.6,3.7c-0.9-0.3-1.8-0.6-2.7-0.9
			c-25.8-8.8-53.8-16.1-84.4-20C170.4,133.2,157,165.9,162.8,200.3z"/>
		
			<linearGradient id="SVGID_00000075147540043881919010000015531300818454886556_" gradientUnits="userSpaceOnUse" x1="415.5794" y1="204.5106" x2="395.1396" y2="86.9816" gradientTransform="matrix(1 0 0 -1 0 370)">
			<stop  offset="0" style="stop-color:#FFFFFF;stop-opacity:0.8"/>
			<stop  offset="0.6265" style="stop-color:#FFFFFF;stop-opacity:0"/>
		</linearGradient>
		<path style="opacity:0.8;fill:url(#SVGID_00000075147540043881919010000015531300818454886556_);enable-background:new    ;" d="
			M320.7,200.3c13,74.1,101.9,104.7,157.7,54.3c8.5-7.7,15.6-17.2,20.9-27.5c-11.9-5.2-24.4-10.6-37.1-16.1l-0.3,0.5
			c-14,24.5-44.5,34.5-70.3,22.7c-28.8-14-36.9-42.7-29.3-66.6c-13-5.7-25.5-11.1-37.1-16.2C319.6,166.5,317.7,183.2,320.7,200.3z"
			/>
	</g>
	
		<linearGradient id="SVGID_00000008113262397494037040000008415347480315014542_" gradientUnits="userSpaceOnUse" x1="439.8177" y1="105.6777" x2="461.4552" y2="146.3559" gradientTransform="matrix(1 0 0 -1 0 370)">
		<stop  offset="0.1124" style="stop-color:#2E3192;stop-opacity:0"/>
		<stop  offset="0.9849" style="stop-color:#000039"/>
	</linearGradient>
	<path style="fill:url(#SVGID_00000008113262397494037040000008415347480315014542_);" d="M478.4,254.6c8.5-7.7,15.6-17.2,20.9-27.5
		L462.2,211l-0.3,0.5c-10.2,17.8-29,27.9-48.4,27.6v40.2C436.1,279.7,459.2,271.9,478.4,254.6z"/>
</g>
</svg>
